<mxfile host="app.diagrams.net" agent="Mozilla/5.0 (X11; Linux x86_64) AppleWebKit/537.36 (KHTML, like Gecko) Chrome/130.0.0.0 Safari/537.36" version="24.8.0">
  <diagram name="Page-1" id="ZYQRLcKwHmRgvJAvU76w">
    <mxGraphModel dx="4435" dy="2883" grid="1" gridSize="10" guides="1" tooltips="1" connect="1" arrows="1" fold="1" page="1" pageScale="1" pageWidth="850" pageHeight="1100" math="0" shadow="0">
      <root>
        <mxCell id="0" />
        <mxCell id="1" parent="0" />
        <mxCell id="FGZcqcQYOmMzmjyI6rhA-66" value="" style="group" vertex="1" connectable="0" parent="1">
          <mxGeometry x="-690" y="-930" width="240" height="240" as="geometry" />
        </mxCell>
        <mxCell id="FGZcqcQYOmMzmjyI6rhA-1" value="" style="rounded=1;whiteSpace=wrap;html=1;strokeWidth=4;" vertex="1" parent="FGZcqcQYOmMzmjyI6rhA-66">
          <mxGeometry width="240" height="240" as="geometry" />
        </mxCell>
        <mxCell id="FGZcqcQYOmMzmjyI6rhA-2" value="" style="verticalLabelPosition=bottom;verticalAlign=top;html=1;shape=mxgraph.basic.pyramid;dx1=0.4;dx2=0.6;dy1=0.9;dy2=0.8;strokeWidth=3;" vertex="1" parent="FGZcqcQYOmMzmjyI6rhA-66">
          <mxGeometry x="71" y="49" width="100" height="100" as="geometry" />
        </mxCell>
        <mxCell id="FGZcqcQYOmMzmjyI6rhA-3" value="&lt;font data-font-src=&quot;https://fonts.googleapis.com/css?family=Ubuntu&quot; face=&quot;Ubuntu&quot;&gt;lnplay.guide/prism&lt;/font&gt;" style="text;html=1;align=center;verticalAlign=middle;whiteSpace=wrap;rounded=0;fontSize=20;fontStyle=0;fontFamily=Helvetica;labelBackgroundColor=none;labelBorderColor=none;textShadow=1;" vertex="1" parent="FGZcqcQYOmMzmjyI6rhA-66">
          <mxGeometry y="170" width="240" height="30" as="geometry" />
        </mxCell>
        <mxCell id="FGZcqcQYOmMzmjyI6rhA-4" value="BOLT12" style="endArrow=classic;html=1;rounded=0;flowAnimation=0;strokeWidth=2;shadow=0;endFill=1;fontFamily=Ubuntu;fontSource=https%3A%2F%2Ffonts.googleapis.com%2Fcss%3Ffamily%3DUbuntu;" edge="1" parent="FGZcqcQYOmMzmjyI6rhA-66">
          <mxGeometry x="-0.218" width="50" height="50" relative="1" as="geometry">
            <mxPoint x="20" y="97" as="sourcePoint" />
            <mxPoint x="110" y="97" as="targetPoint" />
            <mxPoint as="offset" />
          </mxGeometry>
        </mxCell>
        <mxCell id="FGZcqcQYOmMzmjyI6rhA-5" value="" style="endArrow=classic;html=1;rounded=0;flowAnimation=0;strokeWidth=3;fillColor=#dae8fc;strokeColor=#6c8ebf;endFill=1;" edge="1" parent="FGZcqcQYOmMzmjyI6rhA-66">
          <mxGeometry x="-0.218" width="50" height="50" relative="1" as="geometry">
            <mxPoint x="128" y="96" as="sourcePoint" />
            <mxPoint x="176" y="59" as="targetPoint" />
            <mxPoint as="offset" />
          </mxGeometry>
        </mxCell>
        <mxCell id="FGZcqcQYOmMzmjyI6rhA-6" value="" style="endArrow=classic;html=1;rounded=0;flowAnimation=0;strokeWidth=3;fillColor=#f8cecc;strokeColor=#b85450;endFill=1;" edge="1" parent="FGZcqcQYOmMzmjyI6rhA-66">
          <mxGeometry x="-0.218" width="50" height="50" relative="1" as="geometry">
            <mxPoint x="128" y="96" as="sourcePoint" />
            <mxPoint x="188" y="86" as="targetPoint" />
            <mxPoint as="offset" />
          </mxGeometry>
        </mxCell>
        <mxCell id="FGZcqcQYOmMzmjyI6rhA-7" value="" style="endArrow=classic;html=1;rounded=1;flowAnimation=0;strokeWidth=3;curved=0;fillColor=#e1d5e7;strokeColor=#9673a6;endFill=1;" edge="1" parent="FGZcqcQYOmMzmjyI6rhA-66">
          <mxGeometry x="-0.218" width="50" height="50" relative="1" as="geometry">
            <mxPoint x="128" y="96" as="sourcePoint" />
            <mxPoint x="189" y="115" as="targetPoint" />
            <mxPoint as="offset" />
          </mxGeometry>
        </mxCell>
        <mxCell id="FGZcqcQYOmMzmjyI6rhA-67" value="" style="group" vertex="1" connectable="0" parent="1">
          <mxGeometry x="-370" y="-930" width="240" height="240" as="geometry" />
        </mxCell>
        <mxCell id="FGZcqcQYOmMzmjyI6rhA-68" value="" style="rounded=1;whiteSpace=wrap;html=1;strokeWidth=4;" vertex="1" parent="FGZcqcQYOmMzmjyI6rhA-67">
          <mxGeometry width="240" height="240" as="geometry" />
        </mxCell>
        <mxCell id="FGZcqcQYOmMzmjyI6rhA-69" value="" style="verticalLabelPosition=bottom;verticalAlign=top;html=1;shape=mxgraph.basic.pyramid;dx1=0.4;dx2=0.6;dy1=0.9;dy2=0.8;strokeWidth=3;" vertex="1" parent="FGZcqcQYOmMzmjyI6rhA-67">
          <mxGeometry x="71" y="49" width="100" height="100" as="geometry" />
        </mxCell>
        <mxCell id="FGZcqcQYOmMzmjyI6rhA-70" value="&lt;font data-font-src=&quot;https://fonts.googleapis.com/css?family=Ubuntu&quot; face=&quot;Ubuntu&quot;&gt;lnplay.guide/prism&lt;/font&gt;" style="text;html=1;align=center;verticalAlign=middle;whiteSpace=wrap;rounded=0;fontSize=20;fontStyle=0;fontFamily=Helvetica;labelBackgroundColor=none;labelBorderColor=none;textShadow=1;" vertex="1" parent="FGZcqcQYOmMzmjyI6rhA-67">
          <mxGeometry y="170" width="240" height="30" as="geometry" />
        </mxCell>
        <mxCell id="FGZcqcQYOmMzmjyI6rhA-71" value="BOLT12" style="endArrow=classic;html=1;rounded=0;flowAnimation=0;strokeWidth=2;shadow=0;endFill=1;fontFamily=Ubuntu;fontSource=https%3A%2F%2Ffonts.googleapis.com%2Fcss%3Ffamily%3DUbuntu;" edge="1" parent="FGZcqcQYOmMzmjyI6rhA-67">
          <mxGeometry x="-0.218" width="50" height="50" relative="1" as="geometry">
            <mxPoint x="20" y="97" as="sourcePoint" />
            <mxPoint x="110" y="97" as="targetPoint" />
            <mxPoint as="offset" />
          </mxGeometry>
        </mxCell>
        <mxCell id="FGZcqcQYOmMzmjyI6rhA-72" value="" style="endArrow=classic;html=1;rounded=0;flowAnimation=0;strokeWidth=3;fillColor=#dae8fc;strokeColor=#6c8ebf;endFill=1;" edge="1" parent="FGZcqcQYOmMzmjyI6rhA-67">
          <mxGeometry x="-0.218" width="50" height="50" relative="1" as="geometry">
            <mxPoint x="128" y="96" as="sourcePoint" />
            <mxPoint x="176" y="59" as="targetPoint" />
            <mxPoint as="offset" />
          </mxGeometry>
        </mxCell>
        <mxCell id="FGZcqcQYOmMzmjyI6rhA-73" value="" style="endArrow=classic;html=1;rounded=0;flowAnimation=0;strokeWidth=3;fillColor=#f8cecc;strokeColor=#b85450;endFill=1;" edge="1" parent="FGZcqcQYOmMzmjyI6rhA-67">
          <mxGeometry x="-0.218" width="50" height="50" relative="1" as="geometry">
            <mxPoint x="128" y="96" as="sourcePoint" />
            <mxPoint x="188" y="86" as="targetPoint" />
            <mxPoint as="offset" />
          </mxGeometry>
        </mxCell>
        <mxCell id="FGZcqcQYOmMzmjyI6rhA-74" value="" style="endArrow=classic;html=1;rounded=1;flowAnimation=0;strokeWidth=3;curved=0;fillColor=#e1d5e7;strokeColor=#9673a6;endFill=1;" edge="1" parent="FGZcqcQYOmMzmjyI6rhA-67">
          <mxGeometry x="-0.218" width="50" height="50" relative="1" as="geometry">
            <mxPoint x="128" y="96" as="sourcePoint" />
            <mxPoint x="189" y="115" as="targetPoint" />
            <mxPoint as="offset" />
          </mxGeometry>
        </mxCell>
        <mxCell id="FGZcqcQYOmMzmjyI6rhA-75" value="" style="group" vertex="1" connectable="0" parent="1">
          <mxGeometry x="-690" y="-650" width="240" height="240" as="geometry" />
        </mxCell>
        <mxCell id="FGZcqcQYOmMzmjyI6rhA-76" value="" style="rounded=1;whiteSpace=wrap;html=1;strokeWidth=4;" vertex="1" parent="FGZcqcQYOmMzmjyI6rhA-75">
          <mxGeometry width="240" height="240" as="geometry" />
        </mxCell>
        <mxCell id="FGZcqcQYOmMzmjyI6rhA-77" value="" style="verticalLabelPosition=bottom;verticalAlign=top;html=1;shape=mxgraph.basic.pyramid;dx1=0.4;dx2=0.6;dy1=0.9;dy2=0.8;strokeWidth=3;" vertex="1" parent="FGZcqcQYOmMzmjyI6rhA-75">
          <mxGeometry x="71" y="49" width="100" height="100" as="geometry" />
        </mxCell>
        <mxCell id="FGZcqcQYOmMzmjyI6rhA-78" value="&lt;font data-font-src=&quot;https://fonts.googleapis.com/css?family=Ubuntu&quot; face=&quot;Ubuntu&quot;&gt;lnplay.guide/prism&lt;/font&gt;" style="text;html=1;align=center;verticalAlign=middle;whiteSpace=wrap;rounded=0;fontSize=20;fontStyle=0;fontFamily=Helvetica;labelBackgroundColor=none;labelBorderColor=none;textShadow=1;" vertex="1" parent="FGZcqcQYOmMzmjyI6rhA-75">
          <mxGeometry y="170" width="240" height="30" as="geometry" />
        </mxCell>
        <mxCell id="FGZcqcQYOmMzmjyI6rhA-79" value="BOLT12" style="endArrow=classic;html=1;rounded=0;flowAnimation=0;strokeWidth=2;shadow=0;endFill=1;fontFamily=Ubuntu;fontSource=https%3A%2F%2Ffonts.googleapis.com%2Fcss%3Ffamily%3DUbuntu;" edge="1" parent="FGZcqcQYOmMzmjyI6rhA-75">
          <mxGeometry x="-0.218" width="50" height="50" relative="1" as="geometry">
            <mxPoint x="20" y="97" as="sourcePoint" />
            <mxPoint x="110" y="97" as="targetPoint" />
            <mxPoint as="offset" />
          </mxGeometry>
        </mxCell>
        <mxCell id="FGZcqcQYOmMzmjyI6rhA-80" value="" style="endArrow=classic;html=1;rounded=0;flowAnimation=0;strokeWidth=3;fillColor=#dae8fc;strokeColor=#6c8ebf;endFill=1;" edge="1" parent="FGZcqcQYOmMzmjyI6rhA-75">
          <mxGeometry x="-0.218" width="50" height="50" relative="1" as="geometry">
            <mxPoint x="128" y="96" as="sourcePoint" />
            <mxPoint x="176" y="59" as="targetPoint" />
            <mxPoint as="offset" />
          </mxGeometry>
        </mxCell>
        <mxCell id="FGZcqcQYOmMzmjyI6rhA-81" value="" style="endArrow=classic;html=1;rounded=0;flowAnimation=0;strokeWidth=3;fillColor=#f8cecc;strokeColor=#b85450;endFill=1;" edge="1" parent="FGZcqcQYOmMzmjyI6rhA-75">
          <mxGeometry x="-0.218" width="50" height="50" relative="1" as="geometry">
            <mxPoint x="128" y="96" as="sourcePoint" />
            <mxPoint x="188" y="86" as="targetPoint" />
            <mxPoint as="offset" />
          </mxGeometry>
        </mxCell>
        <mxCell id="FGZcqcQYOmMzmjyI6rhA-82" value="" style="endArrow=classic;html=1;rounded=1;flowAnimation=0;strokeWidth=3;curved=0;fillColor=#e1d5e7;strokeColor=#9673a6;endFill=1;" edge="1" parent="FGZcqcQYOmMzmjyI6rhA-75">
          <mxGeometry x="-0.218" width="50" height="50" relative="1" as="geometry">
            <mxPoint x="128" y="96" as="sourcePoint" />
            <mxPoint x="189" y="115" as="targetPoint" />
            <mxPoint as="offset" />
          </mxGeometry>
        </mxCell>
        <mxCell id="FGZcqcQYOmMzmjyI6rhA-83" value="" style="group" vertex="1" connectable="0" parent="1">
          <mxGeometry x="-370" y="-650" width="240" height="240" as="geometry" />
        </mxCell>
        <mxCell id="FGZcqcQYOmMzmjyI6rhA-84" value="" style="rounded=1;whiteSpace=wrap;html=1;strokeWidth=4;" vertex="1" parent="FGZcqcQYOmMzmjyI6rhA-83">
          <mxGeometry width="240" height="240" as="geometry" />
        </mxCell>
        <mxCell id="FGZcqcQYOmMzmjyI6rhA-85" value="" style="verticalLabelPosition=bottom;verticalAlign=top;html=1;shape=mxgraph.basic.pyramid;dx1=0.4;dx2=0.6;dy1=0.9;dy2=0.8;strokeWidth=3;" vertex="1" parent="FGZcqcQYOmMzmjyI6rhA-83">
          <mxGeometry x="71" y="49" width="100" height="100" as="geometry" />
        </mxCell>
        <mxCell id="FGZcqcQYOmMzmjyI6rhA-86" value="&lt;font data-font-src=&quot;https://fonts.googleapis.com/css?family=Ubuntu&quot; face=&quot;Ubuntu&quot;&gt;lnplay.guide/prism&lt;/font&gt;" style="text;html=1;align=center;verticalAlign=middle;whiteSpace=wrap;rounded=0;fontSize=20;fontStyle=0;fontFamily=Helvetica;labelBackgroundColor=none;labelBorderColor=none;textShadow=1;" vertex="1" parent="FGZcqcQYOmMzmjyI6rhA-83">
          <mxGeometry y="170" width="240" height="30" as="geometry" />
        </mxCell>
        <mxCell id="FGZcqcQYOmMzmjyI6rhA-87" value="BOLT12" style="endArrow=classic;html=1;rounded=0;flowAnimation=0;strokeWidth=2;shadow=0;endFill=1;fontFamily=Ubuntu;fontSource=https%3A%2F%2Ffonts.googleapis.com%2Fcss%3Ffamily%3DUbuntu;" edge="1" parent="FGZcqcQYOmMzmjyI6rhA-83">
          <mxGeometry x="-0.218" width="50" height="50" relative="1" as="geometry">
            <mxPoint x="20" y="97" as="sourcePoint" />
            <mxPoint x="110" y="97" as="targetPoint" />
            <mxPoint as="offset" />
          </mxGeometry>
        </mxCell>
        <mxCell id="FGZcqcQYOmMzmjyI6rhA-88" value="" style="endArrow=classic;html=1;rounded=0;flowAnimation=0;strokeWidth=3;fillColor=#dae8fc;strokeColor=#6c8ebf;endFill=1;" edge="1" parent="FGZcqcQYOmMzmjyI6rhA-83">
          <mxGeometry x="-0.218" width="50" height="50" relative="1" as="geometry">
            <mxPoint x="128" y="96" as="sourcePoint" />
            <mxPoint x="176" y="59" as="targetPoint" />
            <mxPoint as="offset" />
          </mxGeometry>
        </mxCell>
        <mxCell id="FGZcqcQYOmMzmjyI6rhA-89" value="" style="endArrow=classic;html=1;rounded=0;flowAnimation=0;strokeWidth=3;fillColor=#f8cecc;strokeColor=#b85450;endFill=1;" edge="1" parent="FGZcqcQYOmMzmjyI6rhA-83">
          <mxGeometry x="-0.218" width="50" height="50" relative="1" as="geometry">
            <mxPoint x="128" y="96" as="sourcePoint" />
            <mxPoint x="188" y="86" as="targetPoint" />
            <mxPoint as="offset" />
          </mxGeometry>
        </mxCell>
        <mxCell id="FGZcqcQYOmMzmjyI6rhA-90" value="" style="endArrow=classic;html=1;rounded=1;flowAnimation=0;strokeWidth=3;curved=0;fillColor=#e1d5e7;strokeColor=#9673a6;endFill=1;" edge="1" parent="FGZcqcQYOmMzmjyI6rhA-83">
          <mxGeometry x="-0.218" width="50" height="50" relative="1" as="geometry">
            <mxPoint x="128" y="96" as="sourcePoint" />
            <mxPoint x="189" y="115" as="targetPoint" />
            <mxPoint as="offset" />
          </mxGeometry>
        </mxCell>
        <mxCell id="FGZcqcQYOmMzmjyI6rhA-99" value="" style="group" vertex="1" connectable="0" parent="1">
          <mxGeometry x="-690" y="-370" width="240" height="240" as="geometry" />
        </mxCell>
        <mxCell id="FGZcqcQYOmMzmjyI6rhA-100" value="" style="rounded=1;whiteSpace=wrap;html=1;strokeWidth=4;" vertex="1" parent="FGZcqcQYOmMzmjyI6rhA-99">
          <mxGeometry width="240" height="240" as="geometry" />
        </mxCell>
        <mxCell id="FGZcqcQYOmMzmjyI6rhA-101" value="" style="verticalLabelPosition=bottom;verticalAlign=top;html=1;shape=mxgraph.basic.pyramid;dx1=0.4;dx2=0.6;dy1=0.9;dy2=0.8;strokeWidth=3;" vertex="1" parent="FGZcqcQYOmMzmjyI6rhA-99">
          <mxGeometry x="71" y="49" width="100" height="100" as="geometry" />
        </mxCell>
        <mxCell id="FGZcqcQYOmMzmjyI6rhA-102" value="&lt;font data-font-src=&quot;https://fonts.googleapis.com/css?family=Ubuntu&quot; face=&quot;Ubuntu&quot;&gt;lnplay.guide/prism&lt;/font&gt;" style="text;html=1;align=center;verticalAlign=middle;whiteSpace=wrap;rounded=0;fontSize=20;fontStyle=0;fontFamily=Helvetica;labelBackgroundColor=none;labelBorderColor=none;textShadow=1;" vertex="1" parent="FGZcqcQYOmMzmjyI6rhA-99">
          <mxGeometry y="170" width="240" height="30" as="geometry" />
        </mxCell>
        <mxCell id="FGZcqcQYOmMzmjyI6rhA-103" value="BOLT12" style="endArrow=classic;html=1;rounded=0;flowAnimation=0;strokeWidth=2;shadow=0;endFill=1;fontFamily=Ubuntu;fontSource=https%3A%2F%2Ffonts.googleapis.com%2Fcss%3Ffamily%3DUbuntu;" edge="1" parent="FGZcqcQYOmMzmjyI6rhA-99">
          <mxGeometry x="-0.218" width="50" height="50" relative="1" as="geometry">
            <mxPoint x="20" y="97" as="sourcePoint" />
            <mxPoint x="110" y="97" as="targetPoint" />
            <mxPoint as="offset" />
          </mxGeometry>
        </mxCell>
        <mxCell id="FGZcqcQYOmMzmjyI6rhA-104" value="" style="endArrow=classic;html=1;rounded=0;flowAnimation=0;strokeWidth=3;fillColor=#dae8fc;strokeColor=#6c8ebf;endFill=1;" edge="1" parent="FGZcqcQYOmMzmjyI6rhA-99">
          <mxGeometry x="-0.218" width="50" height="50" relative="1" as="geometry">
            <mxPoint x="128" y="96" as="sourcePoint" />
            <mxPoint x="176" y="59" as="targetPoint" />
            <mxPoint as="offset" />
          </mxGeometry>
        </mxCell>
        <mxCell id="FGZcqcQYOmMzmjyI6rhA-105" value="" style="endArrow=classic;html=1;rounded=0;flowAnimation=0;strokeWidth=3;fillColor=#f8cecc;strokeColor=#b85450;endFill=1;" edge="1" parent="FGZcqcQYOmMzmjyI6rhA-99">
          <mxGeometry x="-0.218" width="50" height="50" relative="1" as="geometry">
            <mxPoint x="128" y="96" as="sourcePoint" />
            <mxPoint x="188" y="86" as="targetPoint" />
            <mxPoint as="offset" />
          </mxGeometry>
        </mxCell>
        <mxCell id="FGZcqcQYOmMzmjyI6rhA-106" value="" style="endArrow=classic;html=1;rounded=1;flowAnimation=0;strokeWidth=3;curved=0;fillColor=#e1d5e7;strokeColor=#9673a6;endFill=1;" edge="1" parent="FGZcqcQYOmMzmjyI6rhA-99">
          <mxGeometry x="-0.218" width="50" height="50" relative="1" as="geometry">
            <mxPoint x="128" y="96" as="sourcePoint" />
            <mxPoint x="189" y="115" as="targetPoint" />
            <mxPoint as="offset" />
          </mxGeometry>
        </mxCell>
        <mxCell id="FGZcqcQYOmMzmjyI6rhA-107" value="" style="group" vertex="1" connectable="0" parent="1">
          <mxGeometry x="-370" y="-370" width="240" height="240" as="geometry" />
        </mxCell>
        <mxCell id="FGZcqcQYOmMzmjyI6rhA-108" value="" style="rounded=1;whiteSpace=wrap;html=1;strokeWidth=4;" vertex="1" parent="FGZcqcQYOmMzmjyI6rhA-107">
          <mxGeometry width="240" height="240" as="geometry" />
        </mxCell>
        <mxCell id="FGZcqcQYOmMzmjyI6rhA-109" value="" style="verticalLabelPosition=bottom;verticalAlign=top;html=1;shape=mxgraph.basic.pyramid;dx1=0.4;dx2=0.6;dy1=0.9;dy2=0.8;strokeWidth=3;" vertex="1" parent="FGZcqcQYOmMzmjyI6rhA-107">
          <mxGeometry x="71" y="49" width="100" height="100" as="geometry" />
        </mxCell>
        <mxCell id="FGZcqcQYOmMzmjyI6rhA-110" value="&lt;font data-font-src=&quot;https://fonts.googleapis.com/css?family=Ubuntu&quot; face=&quot;Ubuntu&quot;&gt;lnplay.guide/prism&lt;/font&gt;" style="text;html=1;align=center;verticalAlign=middle;whiteSpace=wrap;rounded=0;fontSize=20;fontStyle=0;fontFamily=Helvetica;labelBackgroundColor=none;labelBorderColor=none;textShadow=1;" vertex="1" parent="FGZcqcQYOmMzmjyI6rhA-107">
          <mxGeometry y="170" width="240" height="30" as="geometry" />
        </mxCell>
        <mxCell id="FGZcqcQYOmMzmjyI6rhA-111" value="BOLT12" style="endArrow=classic;html=1;rounded=0;flowAnimation=0;strokeWidth=2;shadow=0;endFill=1;fontFamily=Ubuntu;fontSource=https%3A%2F%2Ffonts.googleapis.com%2Fcss%3Ffamily%3DUbuntu;" edge="1" parent="FGZcqcQYOmMzmjyI6rhA-107">
          <mxGeometry x="-0.218" width="50" height="50" relative="1" as="geometry">
            <mxPoint x="20" y="97" as="sourcePoint" />
            <mxPoint x="110" y="97" as="targetPoint" />
            <mxPoint as="offset" />
          </mxGeometry>
        </mxCell>
        <mxCell id="FGZcqcQYOmMzmjyI6rhA-112" value="" style="endArrow=classic;html=1;rounded=0;flowAnimation=0;strokeWidth=3;fillColor=#dae8fc;strokeColor=#6c8ebf;endFill=1;" edge="1" parent="FGZcqcQYOmMzmjyI6rhA-107">
          <mxGeometry x="-0.218" width="50" height="50" relative="1" as="geometry">
            <mxPoint x="128" y="96" as="sourcePoint" />
            <mxPoint x="176" y="59" as="targetPoint" />
            <mxPoint as="offset" />
          </mxGeometry>
        </mxCell>
        <mxCell id="FGZcqcQYOmMzmjyI6rhA-113" value="" style="endArrow=classic;html=1;rounded=0;flowAnimation=0;strokeWidth=3;fillColor=#f8cecc;strokeColor=#b85450;endFill=1;" edge="1" parent="FGZcqcQYOmMzmjyI6rhA-107">
          <mxGeometry x="-0.218" width="50" height="50" relative="1" as="geometry">
            <mxPoint x="128" y="96" as="sourcePoint" />
            <mxPoint x="188" y="86" as="targetPoint" />
            <mxPoint as="offset" />
          </mxGeometry>
        </mxCell>
        <mxCell id="FGZcqcQYOmMzmjyI6rhA-114" value="" style="endArrow=classic;html=1;rounded=1;flowAnimation=0;strokeWidth=3;curved=0;fillColor=#e1d5e7;strokeColor=#9673a6;endFill=1;" edge="1" parent="FGZcqcQYOmMzmjyI6rhA-107">
          <mxGeometry x="-0.218" width="50" height="50" relative="1" as="geometry">
            <mxPoint x="128" y="96" as="sourcePoint" />
            <mxPoint x="189" y="115" as="targetPoint" />
            <mxPoint as="offset" />
          </mxGeometry>
        </mxCell>
      </root>
    </mxGraphModel>
  </diagram>
</mxfile>
